<?xml version="1.0" standalone="no"?>
<!DOCTYPE svg PUBLIC "-//W3C//DTD SVG 20010904//EN"
 "http://www.w3.org/TR/2001/REC-SVG-20010904/DTD/svg10.dtd">
<svg version="1.0" xmlns="http://www.w3.org/2000/svg"
 width="50px" height="50px" viewBox="0 0 512.000000 512.000000"
 preserveAspectRatio="xMidYMid meet">

<g transform="translate(0.000000,512.000000) scale(0.100000,-0.100000)"
fill="#000000" stroke="none">
<path d="M1944 5101 c-59 -27 -106 -89 -153 -203 -45 -107 -46 -133 -11 -166
20 -18 20 -19 -7 -85 -24 -62 -29 -67 -57 -67 -17 0 -39 -7 -49 -14 -10 -8
-56 -105 -102 -217 l-84 -204 -213 -5 c-239 -6 -252 -9 -312 -83 -30 -38 -31
-41 -34 -162 -4 -156 15 -202 100 -246 33 -17 61 -19 233 -19 l195 0 0 -90 0
-89 -54 -26 c-150 -71 -243 -196 -265 -359 -27 -191 81 -390 256 -471 32 -15
64 -30 72 -34 7 -3 23 -34 35 -67 31 -84 88 -187 151 -269 93 -121 283 -295
394 -361 17 -10 31 -21 31 -25 0 -9 -47 -27 -105 -39 -277 -59 -572 -235 -771
-460 -200 -227 -318 -498 -354 -809 -24 -205 4 -316 104 -417 43 -43 79 -68
121 -85 l60 -24 1440 0 1440 0 60 24 c84 34 174 124 204 206 31 81 36 186 17
325 -24 181 -39 215 -96 226 -22 5 -31 17 -53 72 -26 66 -26 67 -7 87 31 33
24 71 -27 159 -107 186 -273 366 -448 483 -134 90 -358 187 -492 213 -54 11
-132 45 -122 54 2 2 49 37 104 79 218 163 392 383 451 569 16 51 21 59 53 69
57 18 145 75 188 122 85 93 125 192 125 316 0 176 -98 332 -257 410 l-65 32 0
90 0 89 215 0 c195 0 220 2 254 20 82 42 104 98 99 257 -3 107 -4 113 -34 150
-60 74 -73 77 -313 83 l-214 5 -172 415 c-94 228 -178 429 -187 445 -35 64
-113 115 -177 115 -17 0 -76 -18 -131 -40 -173 -69 -230 -82 -390 -87 -171 -6
-243 8 -429 82 -122 49 -156 54 -217 26z m1536 -1711 l0 -230 -45 0 -45 0 0
88 c0 102 -15 139 -73 186 l-39 31 -346 3 c-231 2 -359 0 -384 -8 -50 -14 -91
-50 -112 -98 l-18 -39 -111 34 c-312 94 -688 230 -695 252 -3 8 234 11 932 11
l936 0 0 -230z m-1440 -114 c129 -41 267 -85 307 -96 l71 -20 7 -43 c40 -260
290 -443 553 -406 138 20 290 124 352 242 l25 47 62 0 63 0 0 -180 c0 -170 -1
-183 -28 -264 -66 -195 -238 -396 -475 -554 -106 -71 -194 -118 -286 -152
-139 -51 -227 -39 -416 57 -306 156 -557 410 -635 646 -33 96 -34 120 -32 558
l2 317 98 -38 c53 -21 203 -72 332 -114z m-595 -534 c-9 -9 -70 40 -103 84
-101 131 -73 328 61 425 l42 30 3 -267 c1 -147 0 -269 -3 -272z m2287 469 c69
-78 93 -193 64 -295 -14 -45 -29 -71 -75 -117 -31 -32 -62 -59 -69 -59 -9 0
-12 67 -12 271 l0 270 31 -18 c17 -10 45 -34 61 -52z"/>
<path d="M2078 3202 c-38 -5 -86 -55 -94 -99 -14 -77 62 -153 139 -139 20 4
49 20 65 36 83 83 10 217 -110 202z"/>
<path d="M2890 2643 c-31 -11 -49 -36 -55 -76 -9 -53 -28 -83 -68 -107 -30
-18 -52 -20 -305 -20 l-273 0 -24 -25 c-48 -47 -21 -117 49 -130 18 -4 152 -5
297 -3 250 3 266 5 310 26 149 73 226 293 117 331 -17 6 -31 11 -32 10 -1 0
-8 -3 -16 -6z"/>
</g>
</svg>
