<?xml version="1.0" encoding="iso-8859-1"?>
<!-- Uploaded to: SVG Repo, www.svgrepo.com, Generator: SVG Repo Mixer Tools -->
<!DOCTYPE svg PUBLIC "-//W3C//DTD SVG 1.1//EN" "http://www.w3.org/Graphics/SVG/1.1/DTD/svg11.dtd">
<svg fill="#000000" height="50px" width="50px" version="1.1" id="Capa_1" xmlns="http://www.w3.org/2000/svg" xmlns:xlink="http://www.w3.org/1999/xlink" 
	 viewBox="0 0 436.057 436.057" xml:space="preserve">
<g>
	<g>
		<g>
			<path d="M253.004,265.539c-12.973,0-23.527-10.555-23.527-23.528c0-12.973,10.555-23.528,23.527-23.528
				c12.973,0,23.527,10.555,23.527,23.528C276.531,254.985,265.977,265.539,253.004,265.539z M253.004,228.484
				c-7.459,0-13.527,6.068-13.527,13.528s6.068,13.528,13.527,13.528c7.459,0,13.527-6.068,13.527-13.528
				S260.463,228.484,253.004,228.484z"/>
		</g>
		<g>
			<path d="M207.257,222.917c-8.537,0-15.482-6.946-15.482-15.483s6.945-15.482,15.482-15.482c8.537,0,15.482,6.945,15.482,15.482
				S215.794,222.917,207.257,222.917z M207.257,201.952c-3.023,0-5.482,2.46-5.482,5.482c0,3.023,2.459,5.483,5.482,5.483
				c3.023,0,5.482-2.46,5.482-5.483C212.74,204.412,210.28,201.952,207.257,201.952z"/>
		</g>
		<path d="M259.17,164.685v-86.18h1.127c8.271,0,15-6.729,15-15v-6.986c0-8.271-6.729-15-15-15H248.58V5c0-2.761-2.238-5-5-5
			h-51.103c-2.761,0-5,2.239-5,5v36.518H175.76c-8.271,0-15,6.729-15,15v6.986c0,8.271,6.729,15,15,15h1.132v86.18
			c-41.167,26.799-84.536,85.28-84.536,152.851c0,79.753,41.108,118.521,125.674,118.521c84.564,0,125.671-38.768,125.671-118.521
			C343.701,249.963,300.334,191.483,259.17,164.685z M197.477,10h41.103v31.518h-41.103V10z M170.76,63.504v-6.986
			c0-2.757,2.243-5,5-5h84.537c2.757,0,5,2.243,5,5v6.986c0,2.757-2.243,5-5,5H175.76C173.003,68.504,170.76,66.261,170.76,63.504z
			 M218.03,426.057c-78.917,0-115.674-34.483-115.674-108.521c0-65.047,42.6-121.209,82.18-145.864
			c1.466-0.913,2.357-2.518,2.357-4.244V78.504h62.278v88.923c0,1.727,0.891,3.331,2.357,4.244
			c39.578,24.654,82.175,80.816,82.175,145.864C333.701,391.574,296.945,426.057,218.03,426.057z"/>
		<path d="M315.472,281.12c-0.005-0.018-0.014-0.033-0.019-0.05c-0.526-2.246-4.201-17.268-10.654-27.835
			c-1.438-2.356-4.515-3.102-6.873-1.661c-2.357,1.439-3.101,4.516-1.662,6.873c3.58,5.863,6.267,13.654,7.853,18.993l-82.25,0.002
			c-2.432-16.811-16.931-29.771-34.405-29.771c-17.476,0-31.975,12.961-34.406,29.773l-21.127,0
			c1.587-5.339,4.273-13.132,7.855-18.997c1.439-2.356,0.696-5.434-1.661-6.873c-2.357-1.441-5.434-0.695-6.873,1.661
			c-6.723,11.007-10.429,26.843-10.704,28.043c-3.168,11.642-4.776,23.445-4.776,35.086c0,35.182,10.228,61.046,30.4,76.873
			c16.828,13.203,40.333,19.622,71.858,19.622s55.032-6.419,71.859-19.622c20.172-15.827,30.399-41.691,30.399-76.873
			C320.287,304.663,318.667,292.806,315.472,281.12z M187.462,257.669c11.946,0,21.943,8.501,24.262,19.771l-48.525,0.001
			C165.517,266.171,175.515,257.669,187.462,257.669z M283.715,385.369c-14.998,11.768-36.484,17.489-65.686,17.489
			c-29.201,0-50.687-5.721-65.685-17.489c-17.881-14.03-26.573-36.602-26.573-69.006c0-9.579,1.181-19.29,3.513-28.92l177.492-0.004
			c2.332,9.626,3.513,19.338,3.513,28.924C310.287,348.768,301.595,371.339,283.715,385.369z"/>
	</g>
</g>
</svg>