<svg id="visual" viewBox="0 0 3840 2160" width="3840" height="2160" xmlns="http://www.w3.org/2000/svg" xmlns:xlink="http://www.w3.org/1999/xlink" version="1.1"><path d="M0 1822L64 1828.2C128 1834.3 256 1846.7 384 1847C512 1847.3 640 1835.7 768 1822C896 1808.3 1024 1792.7 1152 1786.8C1280 1781 1408 1785 1536 1788.7C1664 1792.3 1792 1795.7 1920 1812.2C2048 1828.7 2176 1858.3 2304 1867.8C2432 1877.3 2560 1866.7 2688 1848.7C2816 1830.7 2944 1805.3 3072 1791.8C3200 1778.3 3328 1776.7 3456 1793C3584 1809.3 3712 1843.7 3776 1860.8L3840 1878L3840 2161L3776 2161C3712 2161 3584 2161 3456 2161C3328 2161 3200 2161 3072 2161C2944 2161 2816 2161 2688 2161C2560 2161 2432 2161 2304 2161C2176 2161 2048 2161 1920 2161C1792 2161 1664 2161 1536 2161C1408 2161 1280 2161 1152 2161C1024 2161 896 2161 768 2161C640 2161 512 2161 384 2161C256 2161 128 2161 64 2161L0 2161Z" fill="#3482F6" stroke-linecap="round" stroke-linejoin="miter"></path></svg>